<?xml version="1.0" standalone="no"?>
<!DOCTYPE svg PUBLIC "-//W3C//DTD SVG 20010904//EN"
 "http://www.w3.org/TR/2001/REC-SVG-20010904/DTD/svg10.dtd">
<svg version="1.0" xmlns="http://www.w3.org/2000/svg"
 width="568.000000pt" height="502.000000pt" viewBox="0 0 568.000000 502.000000"
 preserveAspectRatio="xMidYMid meet">
<metadata>
Created by potrace 1.16, written by Peter Selinger 2001-2019
</metadata>
<g transform="translate(0.000000,502.000000) scale(0.100000,-0.100000)"
fill="#000000" stroke="none">
<path d="M3428 4855 c-143 -35 -283 -117 -398 -234 -42 -42 -145 -166 -230
-275 -251 -322 -435 -552 -559 -696 -156 -182 -459 -489 -606 -616 -134 -115
-133 -115 -134 -7 -2 156 -51 411 -105 543 -92 225 -260 385 -469 444 -152 44
-465 33 -592 -20 -170 -70 -220 -261 -144 -550 34 -131 85 -259 190 -473 l99
-203 0 -92 c0 -50 -12 -172 -25 -271 -35 -254 -53 -405 -61 -516 l-6 -96 -42
-13 c-239 -70 -348 -393 -241 -716 101 -305 398 -728 640 -911 170 -129 422
-188 568 -133 52 20 124 83 167 147 15 22 17 22 80 8 176 -37 439 -45 637 -20
416 55 860 254 1197 537 230 193 307 245 556 378 206 110 402 201 950 443 331
146 453 204 515 247 48 33 97 113 120 194 46 159 -41 322 -218 410 -157 77
-299 86 -515 32 -232 -59 -678 -144 -689 -132 -15 15 571 419 892 617 194 119
282 197 330 294 28 56 30 68 30 170 0 103 -2 114 -33 179 -24 50 -53 89 -110
145 -90 89 -160 132 -274 172 -236 81 -482 50 -699 -86 -19 -13 -150 -87 -290
-166 -140 -78 -305 -173 -367 -211 -86 -52 -110 -63 -101 -45 57 107 414 610
555 782 31 39 71 99 88 135 29 60 31 73 31 170 0 99 -2 110 -32 171 -61 123
-195 222 -358 264 -74 19 -268 19 -347 0z m349 -166 c123 -41 212 -124 232
-218 20 -95 -9 -163 -132 -314 -128 -155 -229 -299 -486 -687 -129 -195 -266
-399 -304 -454 -87 -122 -182 -287 -235 -409 -48 -109 -106 -265 -93 -252 4 6
57 78 116 160 122 169 234 310 315 399 80 86 363 266 845 536 121 68 257 145
301 172 134 80 208 102 344 102 83 0 132 -5 175 -18 146 -44 286 -148 335
-251 18 -37 25 -66 24 -110 -1 -121 -58 -184 -301 -334 -511 -317 -985 -662
-1201 -874 -103 -101 -225 -247 -300 -359 -49 -74 -112 -183 -112 -194 0 -7
52 38 324 278 110 98 215 185 234 194 19 9 64 20 101 25 254 33 331 45 530 85
124 24 279 59 345 76 189 51 311 41 435 -34 116 -71 147 -155 94 -258 -22 -43
-40 -61 -83 -87 -30 -18 -260 -123 -510 -234 -715 -316 -1086 -506 -1281 -656
-42 -32 -121 -96 -175 -141 -319 -270 -724 -458 -1110 -517 -276 -42 -681 -1
-845 86 -219 117 -543 500 -704 831 -78 160 -96 237 -102 440 -7 190 4 329 49
638 23 159 32 253 32 360 l1 145 -92 183 c-156 311 -226 518 -227 672 -1 138
33 177 176 201 105 18 286 18 358 0 260 -63 418 -279 475 -653 8 -57 18 -184
21 -283 3 -99 7 -190 10 -203 6 -31 61 -57 94 -44 38 15 269 205 425 349 250
231 504 517 835 938 342 436 391 495 451 553 94 92 223 161 340 181 77 14 202
5 276 -20z m-3377 -3093 c0 -56 29 -205 56 -284 118 -352 548 -897 821 -1039
29 -15 53 -33 53 -40 0 -19 -58 -62 -102 -75 -93 -28 -298 47 -430 156 -246
204 -534 665 -570 915 -24 162 22 316 110 372 25 16 50 29 54 29 4 0 8 -15 8
-34z"/>
<path d="M1184 1662 c-83 -81 -194 -183 -248 -227 -100 -82 -116 -107 -100
-154 11 -31 56 -55 85 -46 36 12 199 153 362 314 139 138 157 159 157 188 0
43 -30 73 -72 73 -29 -1 -53 -21 -184 -148z"/>
<path d="M1755 1478 c-231 -173 -334 -245 -475 -333 -155 -96 -170 -110 -170
-150 0 -37 35 -75 70 -75 28 0 117 51 300 173 187 125 515 370 535 401 31 47
-5 106 -64 105 -30 0 -63 -21 -196 -121z"/>
<path d="M1865 989 c-98 -48 -222 -99 -320 -131 -88 -29 -168 -61 -177 -70
-38 -38 -3 -128 49 -128 10 0 92 25 183 55 186 63 501 210 519 243 16 31 13
56 -10 86 -32 41 -66 33 -244 -55z"/>
</g>
</svg>
