<?xml version="1.0" standalone="no"?>
<!DOCTYPE svg PUBLIC "-//W3C//DTD SVG 20010904//EN"
 "http://www.w3.org/TR/2001/REC-SVG-20010904/DTD/svg10.dtd">
<svg version="1.0" xmlns="http://www.w3.org/2000/svg"
 width="422.000000pt" height="367.000000pt" viewBox="0 0 422.000000 367.000000"
 preserveAspectRatio="xMidYMid meet">
<metadata>
Created by potrace 1.16, written by Peter Selinger 2001-2019
</metadata>
<g transform="translate(0.000000,367.000000) scale(0.100000,-0.100000)"
fill="#000000" stroke="none">
<path d="M1665 3613 c-63 -8 -199 -46 -265 -73 -142 -59 -288 -173 -375 -295
-52 -72 -127 -223 -156 -315 l-22 -66 -131 1 c-152 0 -208 -11 -323 -66 -140
-67 -242 -178 -301 -327 -22 -59 -26 -82 -26 -187 -1 -92 3 -133 18 -175 27
-82 80 -172 136 -233 l50 -55 -61 -58 c-158 -151 -213 -445 -131 -690 42 -123
74 -178 156 -260 73 -74 140 -115 236 -145 l55 -17 22 -87 c28 -109 63 -173
134 -250 74 -78 187 -145 319 -189 179 -59 271 -70 560 -71 272 0 395 11 602
51 377 73 757 245 1042 472 159 126 351 347 449 517 l42 72 85 -4 c110 -6 175
16 245 86 66 65 110 141 154 264 l36 102 0 195 c-1 215 -11 290 -71 519 -108
413 -253 640 -483 754 -84 42 -85 42 -195 42 -102 0 -115 -2 -165 -28 l-54
-28 -31 29 c-133 126 -447 304 -699 396 -122 45 -300 90 -438 110 -97 15 -334
20 -414 9z m425 -169 c527 -90 1047 -396 1288 -758 200 -302 332 -1038 236
-1321 -22 -64 -109 -216 -187 -325 -80 -113 -289 -318 -407 -402 -325 -230
-706 -369 -1138 -414 -184 -20 -566 -14 -682 10 -172 36 -311 99 -392 178 -48
47 -100 140 -113 204 l-6 31 149 6 c227 10 450 46 547 88 l30 14 -50 2 c-27 2
-153 10 -280 18 -126 8 -293 17 -370 21 -157 7 -228 25 -305 74 -67 43 -114
99 -155 185 -44 92 -58 172 -53 292 5 113 29 189 81 261 70 98 131 119 297
102 176 -19 437 -8 570 23 58 14 98 25 89 26 -68 4 -443 56 -555 76 -217 40
-281 67 -352 153 -83 99 -116 191 -110 311 3 71 10 99 36 154 55 119 163 205
303 242 63 17 196 19 254 4 50 -12 244 -12 352 1 190 24 357 84 474 173 53 39
346 318 317 301 -7 -4 -62 -39 -123 -78 -277 -177 -458 -241 -712 -253 -93 -5
-113 -3 -113 8 1 24 56 154 93 220 126 222 335 355 612 389 87 11 262 3 375
-16z m1507 -504 c80 -39 177 -135 231 -226 147 -250 262 -750 232 -1010 -14
-119 -65 -251 -127 -324 -28 -34 -93 -70 -128 -70 -40 0 -44 11 -29 75 47 196
19 547 -72 894 -74 282 -156 456 -296 622 -21 25 -38 48 -38 52 0 13 67 26
115 22 27 -3 78 -18 112 -35z"/>
<path d="M3141 2414 c-107 -16 -260 -31 -419 -40 -136 -7 -158 -16 -168 -70
-5 -24 0 -37 19 -59 l25 -29 203 12 c272 16 476 46 507 74 30 29 29 72 -3 103
-27 28 -39 29 -164 9z"/>
<path d="M3215 1989 c-121 -39 -406 -108 -610 -148 -115 -23 -225 -48 -242
-56 -56 -25 -56 -106 -1 -133 57 -27 942 181 995 234 30 30 29 69 -2 99 -29
30 -57 30 -140 4z"/>
<path d="M3250 1624 c-115 -73 -260 -145 -410 -205 -85 -34 -164 -70 -174 -80
-29 -27 -25 -77 8 -106 15 -12 33 -23 40 -23 16 0 315 119 376 150 109 54 292
165 305 184 22 30 18 64 -10 91 -33 34 -68 31 -135 -11z"/>
</g>
</svg>
