<?xml version="1.0" standalone="no"?>
<!DOCTYPE svg PUBLIC "-//W3C//DTD SVG 20010904//EN"
 "http://www.w3.org/TR/2001/REC-SVG-20010904/DTD/svg10.dtd">
<svg version="1.0" xmlns="http://www.w3.org/2000/svg"
 width="566.000000pt" height="402.000000pt" viewBox="0 0 566.000000 402.000000"
 preserveAspectRatio="xMidYMid meet">
<metadata>
Created by potrace 1.16, written by Peter Selinger 2001-2019
</metadata>
<g transform="translate(0.000000,402.000000) scale(0.100000,-0.100000)"
fill="#000000" stroke="none">
<path d="M2035 4004 c-225 -30 -461 -97 -662 -186 l-112 -50 -41 32 c-139 110
-352 107 -550 -7 -98 -57 -231 -196 -329 -343 -152 -231 -283 -529 -327 -750
-20 -101 -15 -290 11 -384 49 -179 155 -282 302 -295 l64 -6 35 -105 c73 -220
204 -454 356 -635 342 -410 897 -735 1353 -796 124 -16 362 -6 490 21 211 45
470 151 665 272 16 10 41 3 167 -51 276 -119 629 -299 1058 -540 143 -80 216
-103 325 -103 116 -1 181 25 264 102 110 104 160 236 159 425 -1 295 -140 535
-397 687 -39 23 -188 114 -331 203 -143 89 -302 186 -352 215 -51 30 -91 56
-89 58 14 13 691 -60 876 -95 174 -33 292 -34 373 -3 107 41 185 118 229 227
20 51 23 74 22 193 0 123 -2 142 -28 210 -41 111 -106 207 -195 292 -201 192
-358 233 -1281 333 -231 25 -503 61 -527 70 -8 2 -13 21 -13 42 0 51 -27 215
-47 283 -62 217 -201 400 -397 520 -141 88 -286 137 -481 165 -126 18 -453 18
-590 -1z m600 -159 c186 -33 333 -92 458 -186 164 -123 270 -326 293 -560 l7
-72 -37 7 c-58 11 -184 55 -272 96 -152 70 -275 165 -457 354 l-97 101 91
-145 c120 -191 146 -225 228 -303 119 -112 273 -190 496 -251 194 -54 295 -70
850 -131 476 -53 717 -92 835 -134 246 -90 413 -304 414 -531 0 -155 -66 -253
-192 -281 -58 -14 -83 -11 -317 30 -150 27 -418 55 -805 86 -179 14 -383 33
-455 42 -183 24 -481 23 -648 -1 -70 -11 -126 -21 -124 -22 2 -2 91 -15 198
-29 251 -32 509 -80 573 -108 112 -47 395 -210 791 -455 138 -85 288 -178 334
-206 205 -126 322 -345 308 -576 -12 -192 -105 -320 -245 -337 -70 -8 -164 23
-289 96 -513 299 -1127 591 -1425 676 -140 41 -296 71 -437 85 -127 12 -242
13 -221 1 8 -5 148 -57 310 -115 162 -59 302 -109 310 -112 19 -7 -143 -89
-273 -138 -282 -105 -573 -127 -829 -62 -237 60 -521 204 -749 377 -344 263
-558 553 -691 939 -42 124 -43 127 -43 260 1 114 5 151 28 238 40 154 89 278
182 468 150 308 277 468 472 598 247 164 605 284 943 316 127 12 374 4 485
-15z m-1588 -130 c84 -25 83 -34 -1 -99 -172 -132 -302 -307 -446 -600 -143
-292 -211 -504 -232 -728 l-12 -117 -25 6 c-51 12 -83 35 -111 80 -63 99 -82
305 -42 458 47 176 117 345 214 515 168 293 313 434 499 484 70 19 95 19 156
1z"/>
<path d="M1040 3120 c-26 -26 -26 -81 -1 -104 37 -34 296 -128 554 -202 112
-32 143 -28 163 21 10 24 10 37 -1 62 -12 28 -22 34 -87 53 -175 51 -364 113
-454 150 -110 45 -145 49 -174 20z"/>
<path d="M920 2737 c-14 -7 -31 -25 -38 -40 -28 -59 11 -91 303 -243 210 -109
574 -274 607 -274 59 0 93 84 50 124 -11 9 -115 61 -233 115 -258 118 -347
163 -504 251 -141 80 -152 84 -185 67z"/>
<path d="M792 2390 c-15 -14 -22 -33 -22 -56 0 -30 11 -45 95 -126 141 -135
394 -330 482 -371 31 -14 78 8 93 43 19 47 -4 76 -132 165 -136 94 -227 169
-350 283 -96 89 -125 100 -166 62z"/>
</g>
</svg>
